<svg width="532" height="93" viewBox="0 0 532 93" fill="none" xmlns="http://www.w3.org/2000/svg">
<path d="M38.2734 91L9.45312 15.6953H8.98828C9.5306 21.6608 9.80176 28.7497 9.80176 36.9619V91H0.679199V6.0498H15.5542L42.457 76.125H42.9219L70.0571 6.0498H84.8159V91H74.938V36.2646C74.938 29.9893 75.2091 23.1715 75.7515 15.8115H75.2866L46.2339 91H38.2734ZM145.885 91L143.967 81.9355H143.502C140.326 85.9255 137.15 88.637 133.973 90.0703C130.835 91.4648 126.904 92.1621 122.178 92.1621C115.864 92.1621 110.905 90.5352 107.303 87.2812C103.739 84.0273 101.957 79.3983 101.957 73.394C101.957 60.5334 112.242 53.7931 132.811 53.1733L143.619 52.8247V48.8735C143.619 43.8765 142.534 40.1965 140.365 37.8335C138.234 35.4318 134.806 34.231 130.08 34.231C124.773 34.231 118.769 35.8579 112.067 39.1118L109.104 31.7324C112.242 30.028 115.67 28.6916 119.389 27.7231C123.146 26.7547 126.904 26.2705 130.661 26.2705C138.254 26.2705 143.87 27.9556 147.512 31.3257C151.192 34.6958 153.032 40.0996 153.032 47.5371V91H145.885ZM124.095 84.2017C130.099 84.2017 134.806 82.5553 138.215 79.2627C141.662 75.9701 143.386 71.3604 143.386 65.4336V59.6812L133.741 60.0879C126.071 60.359 120.531 61.5599 117.123 63.6904C113.752 65.7822 112.067 69.0555 112.067 73.5103C112.067 76.9966 113.113 79.6501 115.205 81.4707C117.336 83.2913 120.299 84.2017 124.095 84.2017ZM188.302 58.4028L166.164 27.3164H177.146L193.938 51.7207L210.672 27.3164H221.538L199.4 58.4028L222.7 91H211.776L193.938 65.2012L175.925 91H165.001L188.302 58.4028ZM319.213 91H260.817V83.272L305.907 14.9399H262.212V6.0498H317.935V13.7778L272.845 82.0518H319.213V91ZM377.842 91V49.8032C377.842 44.6125 376.66 40.7388 374.297 38.1821C371.934 35.6255 368.235 34.3472 363.199 34.3472C356.498 34.3472 351.597 36.1678 348.499 39.8091C345.438 43.4504 343.908 49.4159 343.908 57.7056V91H334.263V0.587891H343.908V27.9556C343.908 31.2482 343.753 33.9792 343.443 36.1484H344.024C345.923 33.0882 348.615 30.6865 352.101 28.9434C355.626 27.1615 359.635 26.2705 364.129 26.2705C371.915 26.2705 377.745 28.1299 381.619 31.8486C385.531 35.5286 387.487 41.3973 387.487 49.4546V91H377.842ZM462.327 59.1001C462.327 69.4816 459.712 77.597 454.483 83.4463C449.253 89.2568 442.029 92.1621 432.81 92.1621C427.115 92.1621 422.06 90.8257 417.644 88.1528C413.228 85.48 409.819 81.645 407.417 76.6479C405.016 71.6509 403.815 65.8016 403.815 59.1001C403.815 48.7186 406.41 40.6419 411.601 34.8701C416.792 29.0596 423.997 26.1543 433.216 26.1543C442.126 26.1543 449.195 29.1177 454.425 35.0444C459.693 40.9712 462.327 48.9897 462.327 59.1001ZM413.809 59.1001C413.809 67.2349 415.436 73.4328 418.69 77.6938C421.944 81.9549 426.728 84.0854 433.042 84.0854C439.356 84.0854 444.14 81.9743 447.394 77.752C450.687 73.4909 452.333 67.2736 452.333 59.1001C452.333 51.0041 450.687 44.8643 447.394 40.6807C444.14 36.4583 439.317 34.3472 432.926 34.3472C426.612 34.3472 421.847 36.4196 418.632 40.5645C415.417 44.7093 413.809 50.8879 413.809 59.1001ZM488.358 27.3164V68.6294C488.358 73.8201 489.54 77.6938 491.903 80.2505C494.266 82.8071 497.965 84.0854 503.001 84.0854C509.664 84.0854 514.525 82.2648 517.585 78.6235C520.684 74.9823 522.234 69.0361 522.234 60.7852V27.3164H531.879V91H523.919L522.524 82.4585H522.001C520.026 85.5962 517.276 87.9979 513.75 89.6636C510.264 91.3293 506.274 92.1621 501.781 92.1621C494.033 92.1621 488.223 90.3221 484.349 86.6421C480.514 82.9621 478.597 77.0741 478.597 68.978V27.3164H488.358Z" fill="black"/>
</svg>
