<svg width="327" height="327" viewBox="0 0 327 327" fill="none" xmlns="http://www.w3.org/2000/svg">
<path d="M12.7279 163.5L163.5 12.7279L314.272 163.5L163.5 314.272L12.7279 163.5Z" stroke="#8C1515" stroke-width="18"/>
<path d="M214.386 131.128C211.689 131.287 209.745 131.604 208.555 132.08C207.365 132.556 206.532 133.468 206.056 134.817C205.659 136.166 205.461 138.347 205.461 141.362V200.386C205.461 203.401 205.659 205.582 206.056 206.931C206.532 208.28 207.365 209.192 208.555 209.668C209.824 210.144 211.768 210.461 214.386 210.62V213C210.023 212.762 203.795 212.643 195.703 212.643C187.214 212.643 180.947 212.762 176.901 213V210.62C179.757 210.461 181.82 210.144 183.089 209.668C184.438 209.192 185.35 208.28 185.826 206.931C186.302 205.582 186.54 203.401 186.54 200.386V138.149L157.861 213.119H155.957L123.827 136.483V193.484C123.827 198.165 124.065 201.616 124.541 203.837C125.017 205.979 126.048 207.566 127.635 208.597C129.222 209.549 131.8 210.223 135.37 210.62V213C132.276 212.762 127.992 212.643 122.518 212.643C118.155 212.643 114.704 212.762 112.165 213V210.62C114.783 210.223 116.687 209.549 117.877 208.597C119.146 207.645 119.979 206.138 120.376 204.075C120.852 202.012 121.09 198.958 121.09 194.912V141.362C121.09 138.347 120.852 136.166 120.376 134.817C119.979 133.468 119.146 132.556 117.877 132.08C116.687 131.604 114.783 131.287 112.165 131.128V128.748C114.704 128.986 118.155 129.105 122.518 129.105C129.817 129.105 136.084 128.986 141.32 128.748L165.358 186.701L187.254 129.105H195.703C203.795 129.105 210.023 128.986 214.386 128.748V131.128Z" fill="#8C1515"/>
</svg>
